<mxfile host="app.diagrams.net" agent="Mozilla/5.0 (Windows NT 10.0; Win64; x64) AppleWebKit/537.36 (KHTML, like Gecko) Chrome/138.0.0.0 Safari/537.36" version="28.0.7">
  <diagram name="Page-1" id="qVIlFbi7jbZ3Oo7aXuz9">
    <mxGraphModel dx="1426" dy="789" grid="1" gridSize="10" guides="1" tooltips="1" connect="1" arrows="1" fold="1" page="1" pageScale="1" pageWidth="827" pageHeight="1169" background="none" math="0" shadow="0">
      <root>
        <mxCell id="0" />
        <mxCell id="1" parent="0" />
        <mxCell id="TtrTrerWUQ8AUrICwLYv-11" value="VPC" style="sketch=0;outlineConnect=0;gradientColor=none;html=1;whiteSpace=wrap;fontSize=12;fontStyle=0;shape=mxgraph.aws4.group;grIcon=mxgraph.aws4.group_vpc;strokeColor=#879196;fillColor=none;verticalAlign=top;align=left;spacingLeft=30;fontColor=#879196;dashed=0;" vertex="1" parent="1">
          <mxGeometry x="110" y="240" width="530" height="430" as="geometry" />
        </mxCell>
        <mxCell id="TtrTrerWUQ8AUrICwLYv-10" value="VPC" style="sketch=0;outlineConnect=0;gradientColor=none;html=1;whiteSpace=wrap;fontSize=12;fontStyle=0;shape=mxgraph.aws4.group;grIcon=mxgraph.aws4.group_vpc;strokeColor=#879196;fillColor=none;verticalAlign=top;align=left;spacingLeft=30;fontColor=#879196;dashed=0;" vertex="1" parent="1">
          <mxGeometry x="100" y="255" width="560" height="385" as="geometry" />
        </mxCell>
        <mxCell id="TtrTrerWUQ8AUrICwLYv-8" value="" style="rounded=1;whiteSpace=wrap;html=1;" vertex="1" parent="1">
          <mxGeometry x="40" y="140" width="710" height="590" as="geometry" />
        </mxCell>
        <mxCell id="TtrTrerWUQ8AUrICwLYv-1" value="Elastic &amp;amp; Kibana" style="outlineConnect=0;dashed=0;verticalLabelPosition=bottom;verticalAlign=top;align=center;html=1;shape=mxgraph.aws3.traditional_server;fillColor=#7D7C7C;gradientColor=none;" vertex="1" parent="1">
          <mxGeometry x="347" y="250" width="46.5" height="63" as="geometry" />
        </mxCell>
        <mxCell id="TtrTrerWUQ8AUrICwLYv-26" style="rounded=0;orthogonalLoop=1;jettySize=auto;html=1;exitX=0.817;exitY=0.083;exitDx=0;exitDy=0;exitPerimeter=0;dashed=1;dashPattern=8 8;" edge="1" parent="1" source="TtrTrerWUQ8AUrICwLYv-2">
          <mxGeometry relative="1" as="geometry">
            <mxPoint x="198" y="542" as="sourcePoint" />
            <mxPoint x="347.00143327841846" y="300" as="targetPoint" />
          </mxGeometry>
        </mxCell>
        <mxCell id="TtrTrerWUQ8AUrICwLYv-28" value="Foward logs via agent" style="edgeLabel;html=1;align=center;verticalAlign=middle;resizable=0;points=[];" vertex="1" connectable="0" parent="TtrTrerWUQ8AUrICwLYv-26">
          <mxGeometry x="0.0016" relative="1" as="geometry">
            <mxPoint as="offset" />
          </mxGeometry>
        </mxCell>
        <mxCell id="TtrTrerWUQ8AUrICwLYv-2" value="Windows Server&lt;div&gt;RDP enabled&lt;/div&gt;" style="outlineConnect=0;dashed=0;verticalLabelPosition=bottom;verticalAlign=top;align=center;html=1;shape=mxgraph.aws3.traditional_server;fillColor=#7D7C7C;gradientColor=none;" vertex="1" parent="1">
          <mxGeometry x="160" y="555" width="46.5" height="60" as="geometry" />
        </mxCell>
        <mxCell id="TtrTrerWUQ8AUrICwLYv-27" style="rounded=0;orthogonalLoop=1;jettySize=auto;html=1;dashed=1;dashPattern=8 8;" edge="1" parent="1" source="TtrTrerWUQ8AUrICwLYv-3" target="TtrTrerWUQ8AUrICwLYv-1">
          <mxGeometry relative="1" as="geometry">
            <Array as="points">
              <mxPoint x="420" y="330" />
            </Array>
          </mxGeometry>
        </mxCell>
        <mxCell id="TtrTrerWUQ8AUrICwLYv-29" value="Forward logs via agent" style="edgeLabel;html=1;align=center;verticalAlign=middle;resizable=0;points=[];" vertex="1" connectable="0" parent="TtrTrerWUQ8AUrICwLYv-27">
          <mxGeometry x="0.0033" y="-2" relative="1" as="geometry">
            <mxPoint y="1" as="offset" />
          </mxGeometry>
        </mxCell>
        <mxCell id="TtrTrerWUQ8AUrICwLYv-3" value="Ubuntu Server&lt;div&gt;SSH enabled&lt;/div&gt;" style="outlineConnect=0;dashed=0;verticalLabelPosition=bottom;verticalAlign=top;align=center;html=1;shape=mxgraph.aws3.traditional_server;fillColor=#7D7C7C;gradientColor=none;" vertex="1" parent="1">
          <mxGeometry x="550" y="552" width="53.5" height="63" as="geometry" />
        </mxCell>
        <mxCell id="TtrTrerWUQ8AUrICwLYv-22" style="edgeStyle=orthogonalEdgeStyle;rounded=0;orthogonalLoop=1;jettySize=auto;html=1;startArrow=classic;startFill=1;fillColor=#fa6800;strokeColor=light-dark(#C73500,#FF512F);dashed=1;dashPattern=8 8;" edge="1" parent="1" source="TtrTrerWUQ8AUrICwLYv-4" target="TtrTrerWUQ8AUrICwLYv-1">
          <mxGeometry relative="1" as="geometry" />
        </mxCell>
        <mxCell id="TtrTrerWUQ8AUrICwLYv-24" value="Manage Agents" style="edgeLabel;html=1;align=center;verticalAlign=middle;resizable=0;points=[];" vertex="1" connectable="0" parent="TtrTrerWUQ8AUrICwLYv-22">
          <mxGeometry x="0.0472" relative="1" as="geometry">
            <mxPoint as="offset" />
          </mxGeometry>
        </mxCell>
        <mxCell id="TtrTrerWUQ8AUrICwLYv-4" value="Fleet Server" style="outlineConnect=0;dashed=0;verticalLabelPosition=bottom;verticalAlign=top;align=center;html=1;shape=mxgraph.aws3.traditional_server;fillColor=#7D7C7C;gradientColor=none;" vertex="1" parent="1">
          <mxGeometry x="340" y="553" width="53.5" height="63" as="geometry" />
        </mxCell>
        <mxCell id="TtrTrerWUQ8AUrICwLYv-5" value="osTicket Server" style="outlineConnect=0;dashed=0;verticalLabelPosition=bottom;verticalAlign=top;align=center;html=1;shape=mxgraph.aws3.traditional_server;fillColor=#7D7C7C;gradientColor=none;" vertex="1" parent="1">
          <mxGeometry x="550" y="250" width="53.5" height="63" as="geometry" />
        </mxCell>
        <mxCell id="TtrTrerWUQ8AUrICwLYv-9" value="Vultr" style="text;html=1;align=center;verticalAlign=middle;whiteSpace=wrap;rounded=0;" vertex="1" parent="1">
          <mxGeometry x="90" y="160" width="60" height="30" as="geometry" />
        </mxCell>
        <mxCell id="TtrTrerWUQ8AUrICwLYv-14" style="edgeStyle=orthogonalEdgeStyle;rounded=0;orthogonalLoop=1;jettySize=auto;html=1;entryX=0;entryY=0.5;entryDx=0;entryDy=0;entryPerimeter=0;" edge="1" parent="1" source="TtrTrerWUQ8AUrICwLYv-2" target="TtrTrerWUQ8AUrICwLYv-4">
          <mxGeometry relative="1" as="geometry" />
        </mxCell>
        <mxCell id="TtrTrerWUQ8AUrICwLYv-17" value="Managed" style="edgeLabel;html=1;align=center;verticalAlign=middle;resizable=0;points=[];" vertex="1" connectable="0" parent="TtrTrerWUQ8AUrICwLYv-14">
          <mxGeometry x="0.0045" y="2" relative="1" as="geometry">
            <mxPoint y="1" as="offset" />
          </mxGeometry>
        </mxCell>
        <mxCell id="TtrTrerWUQ8AUrICwLYv-18" style="edgeStyle=orthogonalEdgeStyle;rounded=0;orthogonalLoop=1;jettySize=auto;html=1;entryX=1;entryY=0.5;entryDx=0;entryDy=0;entryPerimeter=0;" edge="1" parent="1" source="TtrTrerWUQ8AUrICwLYv-3" target="TtrTrerWUQ8AUrICwLYv-4">
          <mxGeometry relative="1" as="geometry" />
        </mxCell>
        <mxCell id="TtrTrerWUQ8AUrICwLYv-19" value="Managed" style="edgeLabel;html=1;align=center;verticalAlign=middle;resizable=0;points=[];" vertex="1" connectable="0" parent="TtrTrerWUQ8AUrICwLYv-18">
          <mxGeometry x="-0.0006" y="-3" relative="1" as="geometry">
            <mxPoint as="offset" />
          </mxGeometry>
        </mxCell>
        <mxCell id="TtrTrerWUQ8AUrICwLYv-23" style="edgeStyle=orthogonalEdgeStyle;rounded=0;orthogonalLoop=1;jettySize=auto;html=1;entryX=1;entryY=0.5;entryDx=0;entryDy=0;entryPerimeter=0;startArrow=classic;startFill=1;fillColor=#e3c800;strokeColor=light-dark(#B09500,#FFFF00);dashed=1;dashPattern=8 8;" edge="1" parent="1" source="TtrTrerWUQ8AUrICwLYv-5" target="TtrTrerWUQ8AUrICwLYv-1">
          <mxGeometry relative="1" as="geometry" />
        </mxCell>
        <mxCell id="TtrTrerWUQ8AUrICwLYv-25" value="Alerts/Tickets" style="edgeLabel;html=1;align=center;verticalAlign=middle;resizable=0;points=[];" vertex="1" connectable="0" parent="TtrTrerWUQ8AUrICwLYv-23">
          <mxGeometry x="0.0607" y="-2" relative="1" as="geometry">
            <mxPoint y="2" as="offset" />
          </mxGeometry>
        </mxCell>
        <mxCell id="TtrTrerWUQ8AUrICwLYv-30" value="private network: 172.31.0.0/24&lt;div style=&quot;&quot;&gt;ip Range: 172.31.0.1-254&lt;/div&gt;&lt;div&gt;&lt;div style=&quot;&quot;&gt;&lt;span style=&quot;background-color: transparent; color: light-dark(rgb(0, 0, 0), rgb(255, 255, 255));&quot;&gt;subnet mask: 255.255.255.0&lt;/span&gt;&lt;/div&gt;&lt;div&gt;&lt;br&gt;&lt;/div&gt;&lt;/div&gt;" style="text;html=1;align=left;verticalAlign=middle;whiteSpace=wrap;rounded=0;" vertex="1" parent="1">
          <mxGeometry x="100" y="280" width="190" height="60" as="geometry" />
        </mxCell>
        <mxCell id="TtrTrerWUQ8AUrICwLYv-31" value="" style="outlineConnect=0;dashed=0;verticalLabelPosition=bottom;verticalAlign=top;align=center;html=1;shape=mxgraph.aws3.internet_gateway;fillColor=#F58534;gradientColor=none;" vertex="1" parent="1">
          <mxGeometry x="353" y="180" width="34.5" height="30" as="geometry" />
        </mxCell>
        <mxCell id="TtrTrerWUQ8AUrICwLYv-32" value="Internet" style="ellipse;shape=cloud;whiteSpace=wrap;html=1;" vertex="1" parent="1">
          <mxGeometry x="310.25" y="33" width="120" height="80" as="geometry" />
        </mxCell>
        <mxCell id="TtrTrerWUQ8AUrICwLYv-33" style="edgeStyle=orthogonalEdgeStyle;rounded=0;orthogonalLoop=1;jettySize=auto;html=1;entryX=0.5;entryY=0;entryDx=0;entryDy=0;entryPerimeter=0;" edge="1" parent="1" source="TtrTrerWUQ8AUrICwLYv-32" target="TtrTrerWUQ8AUrICwLYv-31">
          <mxGeometry relative="1" as="geometry" />
        </mxCell>
        <mxCell id="TtrTrerWUQ8AUrICwLYv-34" style="edgeStyle=orthogonalEdgeStyle;rounded=0;orthogonalLoop=1;jettySize=auto;html=1;entryX=0.5;entryY=0;entryDx=0;entryDy=0;entryPerimeter=0;" edge="1" parent="1" source="TtrTrerWUQ8AUrICwLYv-31" target="TtrTrerWUQ8AUrICwLYv-1">
          <mxGeometry relative="1" as="geometry" />
        </mxCell>
        <mxCell id="TtrTrerWUQ8AUrICwLYv-37" style="rounded=0;orthogonalLoop=1;jettySize=auto;html=1;entryX=0.16;entryY=0.55;entryDx=0;entryDy=0;entryPerimeter=0;" edge="1" parent="1" source="TtrTrerWUQ8AUrICwLYv-35" target="TtrTrerWUQ8AUrICwLYv-32">
          <mxGeometry relative="1" as="geometry">
            <mxPoint x="160" y="75" as="targetPoint" />
          </mxGeometry>
        </mxCell>
        <mxCell id="TtrTrerWUQ8AUrICwLYv-38" value="Connect to elastic via web GUI" style="edgeLabel;html=1;align=center;verticalAlign=middle;resizable=0;points=[];" vertex="1" connectable="0" parent="TtrTrerWUQ8AUrICwLYv-37">
          <mxGeometry x="-0.156" y="-1" relative="1" as="geometry">
            <mxPoint as="offset" />
          </mxGeometry>
        </mxCell>
        <mxCell id="TtrTrerWUQ8AUrICwLYv-35" value="Soc Analyst Laptop" style="sketch=0;aspect=fixed;pointerEvents=1;shadow=0;dashed=0;html=1;labelPosition=center;verticalLabelPosition=bottom;verticalAlign=top;align=center;shape=mxgraph.azure.laptop;fillColor=light-dark(default, #4b4d8b);strokeColor=light-dark(#000000,#3168FF);" vertex="1" parent="1">
          <mxGeometry x="40" y="48" width="83.33" height="50" as="geometry" />
        </mxCell>
        <mxCell id="TtrTrerWUQ8AUrICwLYv-36" value="C2 Server&amp;nbsp;&lt;div&gt;Mythic&lt;/div&gt;" style="outlineConnect=0;dashed=0;verticalLabelPosition=bottom;verticalAlign=top;align=center;html=1;shape=mxgraph.aws3.traditional_server;fillColor=light-dark(#E1D5E7,#FF6666);strokeColor=#9673a6;" vertex="1" parent="1">
          <mxGeometry x="750" y="77" width="46.5" height="63" as="geometry" />
        </mxCell>
        <mxCell id="TtrTrerWUQ8AUrICwLYv-39" value="Attacker laptop&amp;nbsp;&lt;div&gt;kali linux&lt;/div&gt;" style="sketch=0;aspect=fixed;pointerEvents=1;shadow=0;dashed=0;html=1;labelPosition=center;verticalLabelPosition=bottom;verticalAlign=top;align=center;shape=mxgraph.azure.laptop;strokeColor=light-dark(#000000,#CC0000);" vertex="1" parent="1">
          <mxGeometry x="603.5" y="10" width="83.33" height="50" as="geometry" />
        </mxCell>
        <mxCell id="TtrTrerWUQ8AUrICwLYv-41" style="rounded=0;orthogonalLoop=1;jettySize=auto;html=1;entryX=0.96;entryY=0.7;entryDx=0;entryDy=0;entryPerimeter=0;" edge="1" parent="1" source="TtrTrerWUQ8AUrICwLYv-36" target="TtrTrerWUQ8AUrICwLYv-32">
          <mxGeometry relative="1" as="geometry">
            <mxPoint x="750" y="90" as="sourcePoint" />
          </mxGeometry>
        </mxCell>
        <mxCell id="TtrTrerWUQ8AUrICwLYv-42" style="rounded=0;orthogonalLoop=1;jettySize=auto;html=1;entryX=0.94;entryY=0.55;entryDx=0;entryDy=0;entryPerimeter=0;" edge="1" parent="1" source="TtrTrerWUQ8AUrICwLYv-39" target="TtrTrerWUQ8AUrICwLYv-32">
          <mxGeometry relative="1" as="geometry" />
        </mxCell>
        <mxCell id="TtrTrerWUQ8AUrICwLYv-43" value="VPC" style="sketch=0;outlineConnect=0;gradientColor=none;html=1;whiteSpace=wrap;fontSize=12;fontStyle=0;shape=mxgraph.aws4.group;grIcon=mxgraph.aws4.group_vpc;strokeColor=#B6BABF;fillColor=none;verticalAlign=top;align=left;spacingLeft=30;fontColor=#B6BABF;dashed=0;" vertex="1" parent="1">
          <mxGeometry x="60" y="210" width="670" height="470" as="geometry" />
        </mxCell>
        <mxCell id="TtrTrerWUQ8AUrICwLYv-44" style="edgeStyle=orthogonalEdgeStyle;rounded=0;orthogonalLoop=1;jettySize=auto;html=1;exitX=0.5;exitY=1;exitDx=0;exitDy=0;" edge="1" parent="1" source="TtrTrerWUQ8AUrICwLYv-9" target="TtrTrerWUQ8AUrICwLYv-9">
          <mxGeometry relative="1" as="geometry" />
        </mxCell>
      </root>
    </mxGraphModel>
  </diagram>
</mxfile>
